<svg width="24" height="24" viewBox="0 0 24 24" fill="none" xmlns="http://www.w3.org/2000/svg">
<g clip-path="url(#clip0_9_27)">
<path d="M18.4489 12.5104L11.8864 19.0099L5.32387 12.5104C4.89102 12.0892 4.55006 11.5829 4.32248 11.0235C4.09489 10.464 3.98561 9.86351 4.00152 9.25974C4.01742 8.65598 4.15816 8.06204 4.41489 7.51534C4.67161 6.96864 5.03874 6.48102 5.49317 6.08318C5.94761 5.68534 6.47949 5.3859 7.05534 5.20372C7.63118 5.02153 8.23851 4.96056 8.83908 5.02462C9.43964 5.08869 10.0204 5.27641 10.5449 5.57596C11.0694 5.87552 11.5261 6.28042 11.8864 6.76517C12.2482 6.28394 12.7055 5.88258 13.2296 5.5862C13.7537 5.28982 14.3333 5.10481 14.9322 5.04275C15.5311 4.98069 16.1363 5.04291 16.7101 5.22551C17.2838 5.40812 17.8137 5.70719 18.2665 6.10399C18.7193 6.50079 19.0854 6.9868 19.3418 7.53158C19.5981 8.07636 19.7393 8.6682 19.7564 9.27005C19.7735 9.87189 19.6662 10.4708 19.4413 11.0293C19.2163 11.5877 18.8784 12.0938 18.4489 12.5157" stroke="#201F20" stroke-width="2" stroke-linecap="round" stroke-linejoin="round"/>
</g>
<defs>
<clipPath id="clip0_9_27">
<rect width="24" height="24" fill="white"/>
</clipPath>
</defs>
</svg>
